
<svg id="Capa_1" enable-background="new 0 0 511.917 511.917" height="512" viewBox="0 0 511.917 511.917" width="512" xmlns="http://www.w3.org/2000/svg">
    <g>
        <path d="m418.002 323.523c-4.143 0-7.5 3.357-7.5 7.5v50.226c0 23.207-18.88 42.087-42.087 42.087h-47.269c-2.921 0-5.576 1.695-6.805 4.346l-9.882 21.318-11.499-21.679c-1.301-2.452-3.85-3.985-6.626-3.985h-64.437c-4.143 0-7.5 3.357-7.5 7.5s3.357 7.5 7.5 7.5h59.925l11.644 21.951c2.205 4.155 6.445 6.699 11.127 6.699.115 0 .231-.002.347-.005 4.819-.129 9.072-2.926 11.101-7.3l9.896-21.346h42.479c31.478 0 57.087-25.609 57.087-57.087v-50.226c-.001-4.141-3.358-7.499-7.501-7.499z" />
        <path d="m189.935 423.336h-132.848c-23.207 0-42.087-18.88-42.087-42.087v-98.117c0-23.207 18.88-42.088 42.087-42.088h156.657c4.143 0 7.5-3.357 7.5-7.5s-3.357-7.5-7.5-7.5h-156.657c-31.478 0-57.087 25.609-57.087 57.088v98.117c0 31.478 25.609 57.087 57.087 57.087h132.848c4.143 0 7.5-3.357 7.5-7.5s-3.358-7.5-7.5-7.5z" />
        <path d="m508.109 206.761c0-5.945-1.845-11.683-5.153-16.469 5.669-5.639 8.961-13.353 8.961-21.662 0-16.877-13.73-30.607-30.607-30.607h-43.192l3.803-8.324c3.754-8.22 5.657-16.969 5.657-26.004v-25.752c0-4.715-.909-9.315-2.701-13.673-4.83-11.749-16.159-19.34-28.911-19.34-9.561 0-18.161 5.684-21.911 14.479l-8.973 21.051-34.902 20.321-5.708 2.426c-9.972 4.238-18.048 11.907-22.809 21.625-4.412-5.224-11.004-8.55-18.361-8.55h-46.352c-11.417 0-20.705 9.288-20.705 20.705v158.46c0 11.416 9.288 20.704 20.705 20.704h46.352c9.985 0 18.565-6.123 22.19-14.81l3.154 1.861c5.894 3.48 12.628 5.319 19.476 5.319h23.037c4.143 0 7.5-3.357 7.5-7.5s-3.357-7.5-7.5-7.5h-23.039c-4.167 0-8.265-1.119-11.851-3.236l-8.936-5.274v-92.304c0-4.143-3.357-7.5-7.5-7.5s-7.5 3.357-7.5 7.5v99.41c0 4.98-4.053 9.033-9.033 9.033h-46.352c-3.146 0-5.705-2.559-5.705-5.704v-158.46c0-3.146 2.56-5.705 5.705-5.705h46.352c4.98 0 9.033 4.053 9.033 9.033v20.43c0 4.143 3.357 7.5 7.5 7.5s7.5-3.357 7.5-7.5v-12.924l7.63-16.063c3.151-6.636 8.611-11.872 15.374-14.746l6.141-2.609c.288-.122.569-.263.84-.421l37.46-21.811c1.396-.813 2.492-2.055 3.126-3.541l9.948-23.339c1.389-3.257 4.572-5.361 8.161-5.361 6.598 0 12.48 3.942 14.989 10.044 1.045 2.54 1.574 5.221 1.574 7.969v25.751c0 6.87-1.447 13.522-4.302 19.771l-5.656 12.383c-1.724 3.773-1.413 8.11.83 11.6 2.242 3.49 6.059 5.574 10.207 5.574h47.653c8.606 0 15.607 7.001 15.607 15.607 0 5.949-3.313 11.302-8.645 13.968-2.351 1.176-3.915 3.496-4.122 6.116-.207 2.621.973 5.158 3.109 6.688 3.663 2.624 5.85 6.87 5.85 11.358 0 5.729-3.594 10.966-8.943 13.03-2.424.936-4.191 3.059-4.671 5.612s.396 5.174 2.316 6.926c2.621 2.391 4.064 5.658 4.064 9.2 0 5.801-4.104 10.913-9.758 12.156-4.03.884-6.955 4.525-6.955 8.698 0 3.229 1.766 6.211 4.615 7.785 3.9 2.149 6.372 6.24 6.45 10.676.059 3.268-1.201 6.381-3.546 8.768-2.441 2.485-5.842 3.91-9.33 3.91h-64.233c-4.143 0-7.5 3.357-7.5 7.5s3.357 7.5 7.5 7.5h64.233c7.486 0 14.787-3.061 20.03-8.397 5.188-5.281 7.974-12.223 7.844-19.546-.109-6.133-2.286-11.965-6.008-16.629 7.102-5.043 11.657-13.351 11.657-22.421 0-4.433-1.082-8.765-3.088-12.633 6.4-5.418 10.325-13.505 10.325-22.132z" />
        <path d="m195.313 308.523c4.143 0 7.5-3.357 7.5-7.5s-3.357-7.5-7.5-7.5h-77.826c-4.143 0-7.5 3.357-7.5 7.5s3.357 7.5 7.5 7.5z" />
        <path d="m61.507 308.523h23.893c4.143 0 7.5-3.357 7.5-7.5s-3.357-7.5-7.5-7.5h-23.893c-4.143 0-7.5 3.357-7.5 7.5s3.357 7.5 7.5 7.5z" />
        <path d="m61.507 364.415h308.574c4.143 0 7.5-3.357 7.5-7.5s-3.357-7.5-7.5-7.5h-308.574c-4.143 0-7.5 3.357-7.5 7.5s3.357 7.5 7.5 7.5z" />
    </g>
</svg> 



